<?xml version="1.0" encoding="utf-8"?>
<!-- Svg Vector Icons : http://www.onlinewebfonts.com/icon -->
<!DOCTYPE svg PUBLIC "-//W3C//DTD SVG 1.1//EN" "http://www.w3.org/Graphics/SVG/1.1/DTD/svg11.dtd">
<svg version="1.1" xmlns="http://www.w3.org/2000/svg" xmlns:xlink="http://www.w3.org/1999/xlink" x="0px" y="0px"
     viewBox="0 0 1000 1000" enable-background="new 0 0 1000 1000" fill="#FFF" xml:space="preserve">
<metadata> Svg Vector Icons : http://www.onlinewebfonts.com/icon </metadata>
    <g><g transform="translate(0.000000,511.000000) scale(0.100000,-0.100000)"><path d="M398.2,4759.5C206.5,4687.3,76,4465,103.7,4265c19.4-111.1,105.6-205.6,1808.4-1905.6L3703.9,573.2v-1955.6c0-2100.1-5.6-2027.8,144.5-2161.2c33.3-33.3,488.9-275,1005.6-538.9c911.2-463.9,944.5-477.8,1077.8-466.7c144.5,13.9,247.2,75,338.9,200c58.3,75,58.3,100,66.7,2511.2l5.6,2436.2l1763.9,1763.9c1211.1,1213.9,1766.7,1788.9,1780.6,1841.7c44.5,188.9-30.5,380.6-194.4,502.8c-75,58.3-77.8,58.3-4664,63.9C2503.8,4773.4,420.4,4767.8,398.2,4759.5z M6973.4,2478.9c-1261.2-1261.2-1414-1425.1-1463.9-1555.6c-52.8-138.9-55.6-213.9-55.6-2227.9V-3388l-430.6,213.9l-427.8,213.9l-8.3,1891.7l-8.3,1888.9l-63.9,125c-44.4,83.3-527.8,588.9-1472.3,1536.2L1634.3,3890h3375.1h3375.1L6973.4,2478.9z"/></g></g>
</svg>